<?xml version="1.0" encoding="UTF-8" standalone="no"?>
<!-- Created with Inkscape (http://www.inkscape.org/) -->

<svg
   xmlns:dc="http://purl.org/dc/elements/1.1/"
   xmlns:cc="http://creativecommons.org/ns#"
   xmlns:rdf="http://www.w3.org/1999/02/22-rdf-syntax-ns#"
   xmlns:svg="http://www.w3.org/2000/svg"
   xmlns="http://www.w3.org/2000/svg"
   xmlns:sodipodi="http://sodipodi.sourceforge.net/DTD/sodipodi-0.dtd"
   xmlns:inkscape="http://www.inkscape.org/namespaces/inkscape"
   width="203.58221mm"
   height="44.716602mm"
   viewBox="0 0 203.58221 44.716602"
   version="1.1"
   id="svg8"
   inkscape:version="0.92.5 (2060ec1f9f, 2020-04-08)"
   sodipodi:docname="chikka-logo.svg">
  <defs
     id="defs2" />
  <sodipodi:namedview
     id="base"
     pagecolor="#ffffff"
     bordercolor="#666666"
     borderopacity="1.0"
     inkscape:pageopacity="0.0"
     inkscape:pageshadow="2"
     inkscape:zoom="1"
     inkscape:cx="143.67549"
     inkscape:cy="219.86679"
     inkscape:document-units="mm"
     inkscape:current-layer="layer1"
     showgrid="false"
     inkscape:window-width="1920"
     inkscape:window-height="1137"
     inkscape:window-x="0"
     inkscape:window-y="89"
     inkscape:window-maximized="1"
     borderlayer="true" />
  <metadata
     id="metadata5">
    <rdf:RDF>
      <cc:Work
         rdf:about="">
        <dc:format>image/svg+xml</dc:format>
        <dc:type
           rdf:resource="http://purl.org/dc/dcmitype/StillImage" />
        <dc:title></dc:title>
      </cc:Work>
    </rdf:RDF>
  </metadata>
  <g
     inkscape:groupmode="layer"
     id="layer2"
     inkscape:label="background"
     transform="translate(-3.836777,-83.453359)">
    <rect
       style="fill:#ffffff;fill-opacity:1;fill-rule:evenodd;stroke-width:0.22911039"
       id="rect131"
       width="229.77435"
       height="277.40582"
       x="-4.7148185"
       y="-36.941982"
       transform="matrix(0.99998349,-0.00574552,-0.01630393,0.99986708,0,0)" />
  </g>
  <g
     inkscape:label="Layer 1"
     inkscape:groupmode="layer"
     id="layer1"
     transform="translate(-3.836777,-170.45336)">
    <g
       id="g120"
       transform="matrix(1.2251849,0,0,1.2251849,-24.473462,-59.242383)">
      <path
         style="fill:#fe7e00;stroke-width:0.26458332"
         d="m 69.150552,223.5109 c -5.847856,-1.52853 -9.404877,-6.94664 -8.468263,-12.89898 0.636472,-4.04487 2.861519,-7.03157 6.550875,-8.79328 1.995858,-0.95305 2.129578,-0.97875 5.092388,-0.97875 2.316575,0 3.342632,0.11572 4.299479,0.48491 l 1.256771,0.4849 v 3.28986 3.28987 l -1.376035,-0.69729 c -2.589212,-1.31205 -5.574784,-0.65602 -7.031368,1.54502 -0.961554,1.45301 -1.133764,3.90796 -0.377595,5.38287 1.437132,2.80313 4.524555,3.79455 7.351093,2.36055 0.715886,-0.36319 1.331378,-0.66085 1.367759,-0.66145 0.03638,-5.3e-4 0.06615,1.42458 0.06615,3.16709 v 3.16821 l -0.732941,0.37902 c -0.935067,0.48354 -3.509418,0.96194 -5.07034,0.94223 -0.664499,-0.008 -1.982084,-0.21754 -2.927969,-0.46478 z m 102.707118,0.0838 c -3.02437,-0.85063 -5.54577,-3.06562 -7.0113,-6.15927 -0.81276,-1.7157 -0.84269,-1.90105 -0.84269,-5.21847 0,-3.29924 0.0334,-3.50975 0.81951,-5.15937 1.14653,-2.40603 2.93526,-4.29429 5.0578,-5.33921 1.49422,-0.7356 2.08954,-0.87268 4.18869,-0.96449 2.80306,-0.1226 4.43336,0.28761 6.18448,1.55612 0.59133,0.42835 1.13571,0.77883 1.20973,0.77883 0.074,0 0.13458,-0.41672 0.13458,-0.92604 v -0.92604 h 3.83646 3.83646 v 10.9802 10.98021 h -3.83646 -3.83646 v -1.05833 c 0,-0.58208 -0.0469,-1.05833 -0.10431,-1.05833 -0.0574,0 -0.50385,0.37381 -0.99219,0.83069 -0.48833,0.45688 -1.42366,1.0633 -2.0785,1.3476 -1.59109,0.69077 -4.73262,0.85149 -6.5658,0.3359 z m 7.48645,-7.088 c 1.98293,-1.12307 2.85621,-4.0569 1.89345,-6.36111 -0.76665,-1.83486 -3.14198,-3.03272 -5.35559,-2.70076 -4.42017,0.66284 -5.60966,6.99146 -1.70242,9.05766 1.55756,0.82366 3.71461,0.82542 5.16456,0.004 z M 79.469302,205.4701 v -17.72708 h 3.836458 3.836458 v 8.06979 c 0,4.43838 0.06722,8.06979 0.149373,8.06979 0.08216,0 0.446694,-0.35335 0.810086,-0.78521 0.363392,-0.43187 1.42258,-1.16028 2.353749,-1.61869 1.621584,-0.79831 1.80235,-0.82871 4.283144,-0.72045 3.041089,0.13272 4.250968,0.63338 5.74306,2.37655 1.7945,2.09647 2.00642,3.39407 2.00642,12.28505 v 7.77733 h -3.820196 -3.820199 l -0.08241,-6.81302 c -0.07364,-6.08789 -0.136541,-6.92209 -0.591021,-7.83776 -0.613732,-1.23652 -1.903978,-1.87209 -3.394609,-1.67215 -1.439984,0.19314 -2.279245,0.83839 -2.934547,2.25619 -0.525465,1.13688 -0.577424,1.74159 -0.657376,7.6506 l -0.08681,6.41614 H 83.28509 79.469299 Z m 24.606248,6.74687 v -10.9802 h 3.83646 3.83646 v 10.9802 10.98021 h -3.83646 -3.83646 z m 9.78959,-6.74687 v -17.72708 h 3.83346 3.83345 l 0.0691,10.59109 0.0692,10.59109 4.01194,-3.84422 4.01194,-3.84421 h 5.31462 5.31462 v -6.74688 -6.74687 h 3.83346 3.83345 l 0.0691,10.64893 0.0692,10.64894 3.99821,-3.90206 3.99821,-3.90206 h 5.19606 c 2.85784,0 5.18695,0.0893 5.17582,0.19843 -0.0111,0.10914 -1.91632,1.92485 -4.23374,4.0349 -2.31742,2.11005 -4.71631,4.34447 -5.33087,4.96538 l -1.11738,1.12892 5.81188,5.81639 5.81188,5.81639 -5.55399,-9e-5 -5.554,-1e-4 -4.10104,-4.35721 -4.10104,-4.35721 -0.0725,4.35731 -0.0726,4.3573 h -9.06125 -9.06126 l -4.09537,-4.32114 -4.09536,-4.32115 -0.0726,4.32115 -0.0725,4.32114 h -3.83006 -3.83006 z m 26.34502,-3.90567 c -0.0657,-0.0657 -2.55436,2.12559 -5.53027,4.86963 l -5.41073,4.98916 5.46101,5.49258 5.46101,5.49258 0.0693,-10.36221 c 0.0381,-5.69922 0.0155,-10.416 -0.0503,-10.48174 z m -34.18221,-4.67651 c -2.15332,-0.93718 -3.10431,-3.99753 -1.89624,-6.1022 0.6836,-1.19095 2.46202,-2.24895 3.7803,-2.24895 0.44766,0 1.34467,0.26789 1.99337,0.59531 4.04706,2.0427 2.49976,8.17268 -2.05101,8.12558 -0.55038,-0.006 -1.37227,-0.17208 -1.82642,-0.36974 z"
         id="path95"
         inkscape:connector-curvature="0"
         sodipodi:nodetypes="cscsccccccsccscccccccscsccsscccccccssccccccsccccccssccccscccscccscccccccccccccccccccccccccccccccscsccccccccccccccccccccccccccccssccc" />
      <path
         sodipodi:nodetypes="ccccsccccsscccccccssscccccccsccccccscccssscccccccsccccscscccccsccccsccccsccsccccccccccccsscccsccccccscscscccccccccscccscscsscccsccccc"
         style="fill:#050505;stroke-width:0.26458332"
         d="m 25.817794,222.49315 c -1.132627,-0.55826 -2.087831,-1.71552 -2.428516,-2.9422 -0.375011,-1.35029 -0.377193,-30.59573 -0.0023,-31.29616 0.306157,-0.57206 1.303786,-0.68034 1.789858,-0.19427 0.177025,0.17702 0.31741,1.02572 0.317297,1.91823 l -2.02e-4,1.60072 5.825675,-0.0886 5.825672,-0.0886 1.160574,0.68014 c 0.791668,0.46395 1.339273,1.04928 1.72276,1.84146 0.552188,1.14067 0.560875,1.38225 0.488434,13.58332 l -0.07375,12.42199 -0.661458,0.97644 c -1.222629,1.80482 -2.100147,2.02775 -7.954889,2.02089 -4.19081,-0.005 -5.302391,-0.0851 -6.009119,-0.43343 z m 3.16909,-2.8785 c 0.20727,-0.45491 0.225192,-0.90382 0.05545,-1.38906 -0.220635,-0.63076 -0.408161,-0.72693 -1.559916,-0.79994 -1.46396,-0.0928 -1.98812,0.31213 -1.98812,1.53585 0,0.99984 0.46918,1.32527 1.910672,1.32527 1.109356,0 1.315598,-0.0876 1.58191,-0.67212 z m 4.392001,0.35462 c 0.417174,-0.41718 0.405368,-1.57786 -0.02199,-2.16232 -0.261522,-0.35765 -0.640151,-0.44522 -1.648627,-0.3813 -1.151753,0.073 -1.33928,0.16918 -1.559915,0.79994 -0.169737,0.48524 -0.151816,0.93415 0.05545,1.38906 0.266311,0.58449 0.472554,0.67212 1.581909,0.67212 0.70162,0 1.418548,-0.14288 1.593173,-0.3175 z m 4.497917,0 c 0.417173,-0.41718 0.405368,-1.57786 -0.02199,-2.16232 -0.261522,-0.35765 -0.640152,-0.44522 -1.648627,-0.3813 -1.151755,0.073 -1.339281,0.16918 -1.559915,0.79994 -0.169738,0.48524 -0.151817,0.93415 0.05545,1.38906 0.266312,0.58449 0.472554,0.67212 1.58191,0.67212 0.701619,0 1.418547,-0.14288 1.593172,-0.3175 z m -8.889918,-4.58796 c 0.20727,-0.4549 0.225192,-0.90381 0.05545,-1.38906 -0.220635,-0.63075 -0.408161,-0.72692 -1.559916,-0.79993 -1.46396,-0.0928 -1.98812,0.31212 -1.98812,1.53585 0,0.99983 0.46918,1.32526 1.910672,1.32526 1.109356,0 1.315598,-0.0876 1.58191,-0.67212 z m 4.392001,0.35462 c 0.417174,-0.41717 0.405368,-1.57786 -0.02199,-2.16231 -0.261522,-0.35766 -0.640151,-0.44522 -1.648627,-0.3813 -1.151753,0.073 -1.33928,0.16918 -1.559915,0.79993 -0.169737,0.48525 -0.151816,0.93416 0.05545,1.38906 0.266311,0.5845 0.472554,0.67212 1.581909,0.67212 0.70162,0 1.418548,-0.14287 1.593173,-0.3175 z m 4.497917,0 c 0.437406,-0.4374 0.399399,-1.93098 -0.05882,-2.31127 -0.210291,-0.17452 -0.937646,-0.27637 -1.648627,-0.23083 -1.112162,0.0712 -1.303874,0.17172 -1.52309,0.79842 -0.169738,0.48525 -0.151817,0.93416 0.05546,1.38906 0.266311,0.5845 0.472553,0.67212 1.581909,0.67212 0.701619,0 1.418548,-0.14287 1.593173,-0.3175 z m -9.094108,-4.3316 c 0.427229,-0.42723 0.538989,-1.33653 0.255175,-2.07613 -0.230478,-0.60062 -3.152491,-0.60062 -3.382968,0 -0.554355,1.44462 0.156528,2.4919 1.691484,2.4919 0.574982,0 1.202058,-0.18152 1.436309,-0.41577 z m 4.497917,0 c 0.427228,-0.42723 0.538988,-1.33653 0.255174,-2.07613 -0.230478,-0.60062 -3.15249,-0.60062 -3.382968,0 -0.554355,1.44462 0.156528,2.4919 1.691485,2.4919 0.574981,0 1.202057,-0.18152 1.436309,-0.41577 z m 4.497916,0 c 0.427228,-0.42723 0.538988,-1.33653 0.255175,-2.07613 -0.230478,-0.60062 -3.152489,-0.60062 -3.382968,0 -0.554355,1.44462 0.156528,2.4919 1.691484,2.4919 0.574982,0 1.202058,-0.18152 1.436309,-0.41577 z m -1.032041,-4.92741 c 1.268275,-0.57786 1.447816,-1.36058 1.447816,-6.31181 v -4.53751 l -0.899584,-0.89958 -0.899583,-0.89959 h -4.550833 -4.550834 l -0.899583,0.89959 -0.899583,0.89958 0.0094,4.59052 c 0.01001,4.90375 0.148496,5.54379 1.342664,6.20567 0.842686,0.46706 8.896795,0.51029 9.900145,0.0531 z m 10.653305,16.11833 c -1.711365,-0.56543 -3.247353,-1.86336 -4.005445,-3.38465 -0.692129,-1.38892 -0.702128,-1.48737 -0.702128,-6.91328 v -5.5043 h 8.202084 8.202083 v 4.97906 c 0,5.5978 -0.252518,6.95263 -1.59938,8.58109 -0.451456,0.54585 -1.377609,1.31938 -2.05812,1.71896 -1.121746,0.65866 -1.509085,0.73214 -4.147708,0.78687 -1.752767,0.0363 -3.300609,-0.0686 -3.891386,-0.26375 z m -4.701763,-20.234 c 0.0063,-2.80519 0.360895,-3.97403 1.679282,-5.53568 0.918369,-1.08783 3.172529,-2.20339 4.452273,-2.20339 h 1.006385 v -3.1561 c 0,-2.5164 0.08427,-3.24037 0.415774,-3.57187 0.343173,-0.34318 1.151681,-0.41578 4.630209,-0.41578 h 4.214434 v 0.92604 0.92605 H 55.382638 51.66889 l 0.07573,2.57696 0.07573,2.57697 1.228053,0.17512 c 1.734638,0.24735 2.953105,0.89394 4.16769,2.21161 1.310249,1.42145 1.880299,3.24081 1.880299,6.00111 v 2.06864 h -3.704174 -3.704166 v -0.83906 c 0,-0.46148 0.208359,-1.0693 0.46302,-1.35069 0.367052,-0.40559 0.463021,-0.99368 0.463021,-2.83733 0,-1.84365 -0.09597,-2.43174 -0.463021,-2.83733 -0.263985,-0.2917 -0.46302,-0.92918 -0.46302,-1.48298 0,-0.93373 -0.03587,-0.97136 -0.926042,-0.97136 -0.892207,0 -0.926349,0.0362 -0.934456,0.99219 -0.0046,0.5457 -0.183224,1.2233 -0.396875,1.50578 -0.553534,0.73183 -0.546965,4.97861 0.0084,5.43953 0.227915,0.18915 0.396875,0.76615 0.396875,1.35532 v 1.02593 h -3.571875 -3.571875 l 0.0058,-2.57968 z"
         id="path93"
         inkscape:connector-curvature="0" />
    </g>
  </g>
</svg>
