<?xml version="1.0" encoding="UTF-8" standalone="no"?>
<!-- Created with Inkscape (http://www.inkscape.org/) -->

<svg
   xmlns:dc="http://purl.org/dc/elements/1.1/"
   xmlns:cc="http://creativecommons.org/ns#"
   xmlns:rdf="http://www.w3.org/1999/02/22-rdf-syntax-ns#"
   xmlns:svg="http://www.w3.org/2000/svg"
   xmlns="http://www.w3.org/2000/svg"
   xmlns:sodipodi="http://sodipodi.sourceforge.net/DTD/sodipodi-0.dtd"
   xmlns:inkscape="http://www.inkscape.org/namespaces/inkscape"
   version="1.1"
   id="svg76"
   width="383.98041"
   height="99.652054"
   viewBox="0 0 383.98041 99.652054"
   sodipodi:docname="navagis-logo_long.svg"
   inkscape:version="0.92.5 (2060ec1f9f, 2020-04-08)">
  <metadata
     id="metadata82">
    <rdf:RDF>
      <cc:Work
         rdf:about="">
        <dc:format>image/svg+xml</dc:format>
        <dc:type
           rdf:resource="http://purl.org/dc/dcmitype/StillImage" />
        <dc:title></dc:title>
      </cc:Work>
    </rdf:RDF>
  </metadata>
  <defs
     id="defs80" />
  <sodipodi:namedview
     pagecolor="#ffffff"
     bordercolor="#666666"
     borderopacity="1"
     objecttolerance="10"
     gridtolerance="10"
     guidetolerance="10"
     inkscape:pageopacity="0"
     inkscape:pageshadow="2"
     inkscape:window-width="1920"
     inkscape:window-height="1137"
     id="namedview78"
     showgrid="false"
     inkscape:zoom="1.546875"
     inkscape:cx="232.46381"
     inkscape:cy="46.338725"
     inkscape:window-x="0"
     inkscape:window-y="89"
     inkscape:window-maximized="1"
     inkscape:current-layer="layer3" />
  <g
     inkscape:groupmode="layer"
     id="layer3"
     inkscape:label="back"
     style="display:inline"
     transform="translate(-0.22856219,-130.75578)">
    <rect
       style="fill:#ffffff;stroke-width:0.39442948"
       id="rect80"
       width="383.98041"
       height="99.652054"
       x="0.22856219"
       y="130.75578" />
  </g>
  <g
     id="g71"
     transform="translate(-0.22856219,-130.75578)">
    <g
       transform="translate(-23.2854,-113.09412)"
       id="g58">
      <path
         sodipodi:nodetypes="cssccscscccsscccccscccscccccssssssscscscccsscscsscccsccccccccccccccsscccscscsccscsscscssc"
         inkscape:connector-curvature="0"
         id="path108"
         d="m 376.70785,286.22652 c -1.45617,-0.84599 3.48439,-15.78799 -11.10149,-23.94441 -2.805,-1.56855 -6.72,-3.76959 -8.7,-4.89119 -1.98,-1.1216 -3.99444,-2.18911 -4.47657,-2.37223 -0.82635,-0.31389 -1.53072,0.0322 -12.3,6.04259 -6.28247,3.50654 -15.47303,8.6351 -20.42303,11.39679 -4.95,2.76169 -9.13202,5.22705 -9.29338,5.47857 -0.21582,0.33642 -0.13664,0.57192 0.29953,0.89085 0.94457,0.69069 0.22479,0.96263 -0.9184,0.34698 l -1.03856,-0.5593 -1.5746,0.84279 c -0.86602,0.46353 -2.15511,1.22739 -2.86463,1.69746 -0.70952,0.47007 -1.37193,0.85467 -1.47201,0.85467 -0.41154,0 -6.86688,3.70795 -7.21295,4.14313 -0.44274,0.55672 -0.49655,2.56921 -0.089,3.33062 0.15727,0.29387 3.05757,2.07374 6.44511,3.95528 3.38753,1.88153 6.16135,3.51653 6.16404,3.63333 0.003,0.11679 -0.63635,0.57299 -1.4201,1.01376 -0.78375,0.44078 -2.1,1.24371 -2.925,1.7843 -0.825,0.54058 -2.88641,1.75198 -4.5809,2.69198 -1.6945,0.94001 -3.21325,1.95639 -3.375,2.25863 -0.41221,0.77023 -0.36642,2.48609 0.0809,3.0316 0.20625,0.25152 3.075,1.9825 6.375,3.84662 3.3,1.86411 7.51413,4.24912 9.36472,5.30002 1.8506,1.0509 3.42322,1.91073 3.4947,1.91073 62.68151,-35.56851 60.02286,-12.95664 61.54162,-32.68357 z m 24.95753,14.67599 c -252.25332,130.79441 -126.12666,65.3972 0,0 z m -46.40862,-8.69242 c 0,-0.17333 0.95001,-0.3 2.25,-0.3 1.29999,0 2.25,0.12667 2.25,0.3 0,0.17333 -0.95001,0.3 -2.25,0.3 -1.29999,0 -2.25,-0.12667 -2.25,-0.3 z m 7.8,0.0679 c 0,-0.37864 1.47153,-0.66795 3.3975,-0.66795 0.91242,0 1.40829,0.10809 1.2375,0.26974 -0.41682,0.39449 -4.635,0.75689 -4.635,0.39821 z m -14.775,-0.28282 c -0.45375,-0.0687 -0.825,-0.26472 -0.825,-0.4355 0,-0.37496 4.20117,-0.0299 4.635,0.38064 0.28473,0.26949 -2.16075,0.3047 -3.81,0.0549 z m 22.275,-0.64679 c 0,-0.14391 0.57375,-0.35003 1.275,-0.45804 0.70125,-0.10801 1.71375,-0.27529 2.25,-0.37173 0.57147,-0.10277 0.975,-0.0501 0.975,0.12725 0,0.16642 -0.85482,0.45144 -1.89957,0.63339 -2.29212,0.39915 -2.60043,0.40735 -2.60043,0.0691 z m -28.65,-0.38462 c -0.825,-0.15933 -1.635,-0.43445 -1.8,-0.61138 -0.2115,-0.22678 0,-0.26572 0.7125,-0.13201 0.55689,0.10432 1.68189,0.18967 2.49999,0.18967 1.05588,0 1.45167,0.10882 1.36401,0.375 -0.16038,0.48698 -0.92538,0.53623 -2.7765,0.17872 z m -7.35,-1.30335 c -0.4125,-0.24243 -0.98625,-0.52618 -1.275,-0.63056 -0.60312,-0.21802 -0.70869,-0.7218 -0.15,-0.71574 0.86271,0.009 3.94221,1.09758 4.05387,1.43251 0.17328,0.51989 -1.70223,0.45839 -2.62887,-0.0862 z m 43.65,0.21923 c 0.49293,-0.49814 3.80202,-1.33758 4.09962,-1.03998 0.28431,0.28432 -1.10655,0.77879 -3.19962,1.1375 -0.80757,0.1384 -1.1019,0.10651 -0.9,-0.0975 z m 6.91134,-1.85127 c -0.10965,-0.17741 -0.0219,-0.38686 0.19464,-0.46545 2.99343,-1.08549 3.84402,-1.2652 3.84402,-0.81214 0,0.1324 -0.70875,0.49138 -1.575,0.79772 -0.86625,0.30634 -1.7301,0.61221 -1.91964,0.67972 -0.18957,0.0675 -0.43437,-0.0224 -0.54402,-0.19985 z m -57.59292,-0.88631 c -0.81486,-0.28682 -1.53486,-0.68135 -1.59999,-0.87675 -0.0651,-0.1954 -0.006,-0.3553 0.13158,-0.35533 0.54321,-1.3e-4 3.99999,1.35871 3.99999,1.57238 0,0.35296 -0.90915,0.23075 -2.53158,-0.3403 z m 64.03158,-1.67696 c 0,-0.2389 2.94348,-1.65506 3.44004,-1.65506 0.90576,0 0.43443,0.5371 -1.02066,1.16306 -1.40415,0.60404 -2.41938,0.8105 -2.41938,0.492 z m -70.8,-0.96778 c -1.1405,-0.53787 -1.48449,-0.81789 -1.11399,-0.90684 0.60371,-0.14493 3.81399,1.0964 3.81399,1.47476 0,0.43939 -1.01825,0.22521 -2.7,-0.56792 z m -5.85,-2.68783 c -1.77537,-0.91445 -1.80891,-0.94054 -1.54651,-1.20294 0.24207,-0.24207 3.79651,1.40445 3.79651,1.75865 0,0.41802 -0.69076,0.24742 -2.25,-0.55571 z"
         style="fill:#fefdfd;stroke-width:0.30000001" />
      <path
         inkscape:connector-curvature="0"
         id="path106"
         d="m 351.95676,337.39333 c 0,-0.81567 -0.1998,-1.55491 -0.525,-1.94255 -0.28875,-0.34418 -7.2075,-4.3869 -15.375,-8.98383 -19.37209,-10.9032 -19.49309,-10.97277 -19.49681,-11.20932 -0.002,-0.11136 0.61829,-0.85704 1.37788,-1.65706 0.75959,-0.80003 2.08439,-2.72314 2.94401,-4.27357 0.85962,-1.55044 1.82685,-2.9942 2.14941,-3.20837 0.64264,-0.4267 0.95618,-0.26565 19.85294,10.1975 4.6626,2.58168 8.60361,4.69396 8.75784,4.69396 0.15423,0 0.75489,-0.27993 1.33476,-0.62207 0.89265,-0.52668 1.45884,-0.60826 3.69216,-0.53199 1.4508,0.0495 5.13531,-0.023 8.18781,-0.1613 5.78103,-0.26184 8.73384,-0.003 10.11444,0.88706 1.29447,0.83441 0.42978,1.21827 13.58556,-6.03097 3.5475,-1.95478 8.06007,-4.43988 10.02792,-5.52244 1.96785,-1.08256 3.63015,-2.12899 3.69402,-2.32541 0.0658,-0.20223 -0.83541,-0.80278 -2.07789,-1.38471 -1.9395,-0.90838 -4.77243,-3.20817 -3.95187,-3.20817 0.17043,0 1.78317,0.80744 3.58386,1.79431 1.80069,0.98687 3.56118,1.79687 3.91224,1.8 0.35103,0.003 0.81369,0.21709 1.02813,0.47547 0.51573,0.62143 1.95786,1.35594 2.19555,1.11826 0.10341,-0.10342 0.18804,0.0134 0.18804,0.25968 0,0.61703 -10.10712,6.51785 -25.74225,15.02905 -4.6059,2.50729 -16.65753,9.15513 -22.3848,12.34775 -6.21741,3.46587 -6.786,3.77548 -6.9336,3.77548 -0.0767,0 -0.13935,-0.59254 -0.13935,-1.31676 z m 34.28706,-17.94021 c 4.15962,-2.326 9.52044,-5.31014 11.91294,-6.63143 2.3925,-1.32129 4.51875,-2.61023 4.725,-2.86431 0.20625,-0.25408 0.375,-0.8569 0.375,-1.3396 0,-0.75284 -0.0976,-0.85896 -0.68679,-0.74634 -0.90753,0.17348 -25.15431,13.68501 -25.63821,14.28689 -0.39195,0.48754 -0.51117,1.9156 -0.18696,2.2398 0.23376,0.23375 0.29199,0.20344 9.49902,-4.94501 z m -52.94916,9.5511 c -8.86167,-4.97427 -16.62417,-9.30863 -17.25001,-9.63191 -0.62584,-0.32328 -2.62289,-1.41935 -4.43789,-2.43572 -10.87041,-6.08726 -15.34329,-8.67935 -15.675,-9.08387 -0.44732,-0.54551 -0.49311,-2.26137 -0.0809,-3.0316 0.16175,-0.30224 1.6805,-1.31862 3.375,-2.25863 1.69449,-0.94 3.7559,-2.14724 4.5809,-2.68274 2.85765,-1.85489 4.65,-2.84359 4.65,-2.56502 0,0.15392 -1.01186,0.83519 -2.24857,1.51393 -1.23671,0.67875 -2.33261,1.37008 -2.43533,1.53628 -0.10272,0.16621 0.0977,0.68689 0.44528,1.15708 1.40565,1.90125 1.56964,5.02401 0.32307,6.15215 -0.58842,0.5325 -0.6654,0.51443 -3.01849,-0.70882 -1.32807,-0.69039 -2.61096,-1.25526 -2.85087,-1.25526 -0.23991,0 -0.78047,-0.22557 -1.20125,-0.50128 -0.65199,-0.4272 -0.80492,-0.43828 -1.03485,-0.075 -0.44019,0.69548 -0.31635,2.27181 0.21298,2.71112 0.27059,0.22456 1.92434,1.2407 3.675,2.25807 8.61412,5.00597 11.2424,6.49121 14.28303,8.07132 1.815,0.9432 6.81,3.6739 11.1,6.06824 4.29,2.39433 11.445,6.37805 15.9,8.85271 4.455,2.47465 8.22825,4.61534 8.385,4.7571 1.17813,1.06538 -2.65206,-0.96431 -16.6971,-8.84815 z m 73.36593,-24.43853 c -0.17397,-0.27808 -2.52972,-1.75567 -5.23506,-3.28355 -4.63557,-2.618 -6.71436,-3.95017 -6.1878,-3.96538 0.12702,-0.004 0.73452,0.30891 1.35,0.69462 0.61545,0.3857 3.23265,1.8754 5.81595,3.31044 2.5833,1.43504 4.77114,2.80263 4.86189,3.03911 0.24258,0.63213 -0.23628,0.79419 -0.60498,0.20476 z"
         style="fill:#a4d5f0;stroke-width:0.30000001" />
      <path
         sodipodi:nodetypes="cccscccsssccssscccccccscsccccscccscccccsccscsscccscsccssccccccscsssscccsscscscccccccccccscsssccccscsccsccccccsccsccscsscccsccssscsscsssssccsccscccssssscsscccsscccccccscsscccccccccccccccccsscscsccccccssc"
         inkscape:connector-curvature="0"
         id="path104"
         d="m 350.58909,320.54354 c -0.55377,-0.44367 -0.54753,-0.4496 0.12705,-0.12104 0.59823,0.29137 0.93906,0.22052 2.175,-0.45217 0.8061,-0.43873 1.46562,-0.68778 1.46562,-0.55345 0,0.27464 -2.37591,1.59534 -2.86767,1.59405 -0.17469,-6e-4 -0.57969,-0.21078 -0.9,-0.46739 z m -2.00733,-1.05388 c -0.61875,-0.32664 -1.125,-0.66092 -1.125,-0.74283 0,-0.0819 0.54,0.12655 1.2,0.46326 0.66,0.33671 1.2,0.67695 1.2,0.7561 0,0.19625 -0.003,0.19546 -1.275,-0.47653 z m 3.48846,-2.21663 c -0.41724,-1.08731 -0.64029,-0.94978 15.48654,-9.54945 7.80957,-4.16448 19.70544,-10.65678 27.3,-14.89931 2.7225,-1.52086 6.3675,-3.51036 8.1,-4.42112 4.42344,-2.32535 4.35777,-2.2006 1.90722,-3.62332 -2.76858,-1.60737 -4.506,-2.47096 -4.66047,-2.31648 -0.0702,0.0702 -0.61881,0.33281 -1.2192,0.58368 -0.99099,0.41406 -1.13697,0.4108 -1.58313,-0.0354 -0.45531,-0.45532 -0.43152,-0.53932 0.32355,-1.14138 l 0.81504,-0.64989 -3.01155,-1.70515 c -1.65633,-0.93783 -3.09156,-1.70515 -3.18936,-1.70515 -0.0978,0 -1.84338,0.80375 -3.87903,1.7861 -11.12619,5.36917 -24.25764,9.3191 -35.00307,10.52889 -3.87315,0.43606 -4.4673,0.63414 -2.62635,0.87558 1.60923,0.21105 2.19618,0.63417 1.91091,1.37754 -0.17115,0.44604 -0.49758,0.48206 -2.65941,0.29348 -2.89251,-0.25231 -3.53346,-0.51497 -3.31311,-1.35766 0.12891,-0.49295 0.012,-0.60393 -0.63648,-0.60393 -0.43692,0 -0.86808,0.19207 -0.95817,0.42681 -0.29271,0.76277 -1.06344,0.80105 -4.14054,0.20569 -1.66476,-0.3221 -4.33491,-0.66583 -5.93364,-0.76384 -8.97858,-0.55044 -17.73464,-2.53395 -27.25021,-6.17297 -2.22365,-0.85039 -4.27253,-1.61629 -4.55308,-1.70201 -0.29127,-0.089 -1.64252,0.49203 -3.15,1.35448 -1.45195,0.83068 -3.01793,1.6539 -3.47994,1.82937 -0.8025,0.30479 -0.836,0.39619 -0.75,2.04576 l 0.09,1.72671 6.3,3.52801 c 3.465,1.9404 6.34192,3.65242 6.39316,3.80448 0.14086,0.41804 -12.63654,-6.80859 -13.06816,-7.39108 -0.20625,-0.27835 -0.375,-1.06198 -0.375,-1.74141 0,-0.67942 0.16875,-1.44751 0.375,-1.70687 0.34607,-0.43517 6.80141,-4.14313 7.21295,-4.14313 0.10008,0 0.76249,-0.3846 1.47201,-0.85467 0.70952,-0.47007 1.99861,-1.23393 2.86463,-1.69746 l 1.5746,-0.84278 1.03856,0.5593 c 1.14319,0.61564 1.86297,0.3437 0.9184,-0.34698 -0.43617,-0.31894 -0.51535,-0.55444 -0.29953,-0.89086 0.16136,-0.25152 4.34338,-2.71687 9.29338,-5.47856 4.95,-2.7617 14.14056,-7.89025 20.42343,-11.3968 10.76928,-6.01044 11.47365,-6.35647 12.3,-6.04259 0.48213,0.18313 2.49657,1.25063 4.47657,2.37223 1.98,1.1216 5.895,3.32264 8.7,4.89119 14.58588,8.15642 22.66494,12.69019 24.12111,13.53617 0.8916,0.518 3.00852,1.68431 4.70421,2.59181 1.69572,0.9075 3.46371,1.94797 3.92889,2.31215 l 0.84579,0.66215 -0.74553,0.59233 c -0.9762,0.77564 -0.61263,1.10814 0.55275,0.50549 0.50214,-0.25966 1.11627,-0.47212 1.36476,-0.47212 0.72612,0 6.77136,3.41306 6.77484,3.825 0.003,0.20625 0.15471,0.375 0.3399,0.375 0.63753,0 -0.32292,0.82343 -2.3781,2.03885 -4.04274,2.39086 -9.28251,5.31379 -12.20862,6.81039 -1.65,0.84393 -11.1675,6.1297 -21.15,11.74617 -9.9825,5.61646 -18.45576,10.37347 -18.82944,10.57111 -0.56094,0.29667 -0.71046,0.2786 -0.8571,-0.10358 z m 0.0216,-25.33267 c -0.43383,-0.41059 -4.635,-0.75561 -4.635,-0.38064 0,0.36039 0.9867,0.54224 3.285,0.60542 0.9774,0.0269 1.52037,-0.0635 1.35,-0.22478 z m -7.40856,-1.15527 c 0.0877,-0.26618 -0.30813,-0.375 -1.36401,-0.375 -0.8181,0 -1.9431,-0.0854 -2.49999,-0.18967 -0.71379,-0.13371 -0.924,-0.0948 -0.7125,0.13201 0.3273,0.35097 2.95143,0.92931 3.87651,0.85437 0.31707,-0.0257 0.63207,-0.21546 0.69999,-0.42171 z m -7.49763,-1.03842 c -0.11166,-0.33493 -3.19116,-1.42313 -4.05387,-1.43251 -0.55869,-0.006 -0.45312,0.49772 0.15,0.71574 0.28875,0.10438 0.8625,0.38813 1.275,0.63056 0.92664,0.5446 2.80215,0.6061 2.62887,0.0862 z m 12.64875,-0.37531 c 8.31759,-0.79414 15.91911,-2.34096 23.12238,-4.70516 6.15921,-2.02152 17.36604,-6.67306 17.81073,-7.39256 0.19563,-0.31657 -0.82353,-0.9098 -20.21073,-11.76402 -6.8475,-3.83367 -13.74111,-7.69689 -15.31911,-8.58492 -1.578,-0.88804 -3.09858,-1.61461 -3.37908,-1.61461 -0.4518,0 -39.83325,21.89276 -40.52972,22.53111 -0.16651,0.15261 -0.0597,0.49582 0.2664,0.85618 0.44566,0.49244 0.47578,0.68404 0.16618,1.05708 -0.47967,0.57797 -1.0033,0.57517 -2.13762,-0.0114 -0.86905,-0.4494 -0.97251,-0.42897 -2.74049,0.54119 -1.01054,0.55452 -1.88491,1.15089 -1.94304,1.32528 -0.12612,0.37836 4.5761,2.35974 8.76648,3.69395 5.90822,1.88116 17.86065,4.32471 18.07074,3.69438 0.0555,-0.16647 0.27882,-0.54601 0.49629,-0.84341 0.38052,-0.52037 0.47826,-0.51925 2.59536,0.0298 1.20999,0.31383 2.45163,0.77426 2.75922,1.02319 0.79644,0.64452 6.38586,0.71956 12.20601,0.16387 z m -22.47762,-1.78372 c -1.45455,-0.50396 -1.9731,-0.8313 -2.04087,-1.2884 -0.14334,-0.96671 0.63666,-1.01658 3.07533,-0.19666 1.70115,0.57197 2.26554,0.89645 2.26554,1.30252 0,0.48183 -0.60432,0.94527 -1.14954,0.88157 -0.11025,-0.0129 -1.07796,-0.32745 -2.15046,-0.69903 z m 2.7,-0.10523 c 0,-0.21367 -3.45678,-1.57251 -3.99999,-1.57238 -0.13752,3e-5 -0.19671,0.15993 -0.13158,0.35533 0.2145,0.64355 4.13157,1.79741 4.13157,1.21705 z m -9.3,-2.41633 c -1.46024,-0.61771 -1.95,-0.97321 -1.95,-1.41544 0,-0.86217 0.92985,-0.87146 2.99635,-0.0299 1.98524,0.80843 2.68784,1.52531 1.95365,1.99334 -0.63829,0.4069 -0.82213,0.37332 -3,-0.54796 z m 2.7,-9e-4 c 0,-0.37837 -3.21028,-1.61969 -3.81399,-1.47477 -0.3705,0.0889 -0.0265,0.36897 1.11399,0.90684 1.68175,0.79313 2.7,1.00732 2.7,0.56793 z m -8.84824,-2.83864 c -3.27611,-1.76092 -2.19393,-3.02213 1.16984,-1.36338 1.99531,0.98393 2.27631,1.3289 1.6184,1.98681 -0.51521,0.51521 -0.78001,0.456 -2.78824,-0.62343 z m 2.54824,0.13871 c 0,-0.3542 -3.55444,-2.00072 -3.79651,-1.75865 -0.2624,0.2624 -0.22886,0.28849 1.54651,1.20294 1.55924,0.80313 2.25,0.97373 2.25,0.55571 z m 77.4,14.52649 c 0,-0.23009 1.31625,-1.15368 2.925,-2.05243 8.04441,-4.49408 9.60936,-5.32922 9.98622,-5.32922 0.73572,0 -0.0528,0.50171 -6.16122,3.92006 -3.3,1.84673 -6.045,3.47519 -6.09999,3.61882 -0.16047,0.419 -0.65001,0.30059 -0.65001,-0.15723 z m -39.9,-4.0777 c -0.34797,-0.22182 -0.37479,-0.40786 -0.11838,-0.82041 0.26397,-0.4247 0.81531,-0.55108 2.70267,-0.6195 2.56932,-0.0931 3.67746,0.32111 3.32388,1.24258 -0.156,0.40653 -0.6531,0.49257 -2.82375,0.48879 -1.44894,-0.002 -2.83692,-0.13369 -3.08442,-0.29146 z m 5.1,-0.60395 c 0,-0.17333 -0.95001,-0.3 -2.25,-0.3 -1.29999,0 -2.25,0.12667 -2.25,0.3 0,0.17333 0.95001,0.3 2.25,0.3 1.29999,0 2.25,-0.12667 2.25,-0.3 z m 2.71026,0.46236 c -0.77568,-0.93462 -0.15747,-1.28701 2.64714,-1.50899 2.78637,-0.22053 3.3426,-0.12006 3.3426,0.60378 0,0.65025 -0.84555,0.94504 -3.33117,1.16138 -1.84596,0.16067 -2.3532,0.11179 -2.65857,-0.25617 z m 5.22474,-0.79263 c 0.17079,-0.16165 -0.32508,-0.26973 -1.2375,-0.26973 -1.92597,0 -3.3975,0.2893 -3.3975,0.66795 0,0.35868 4.21818,-0.004 4.635,-0.39822 z m 2.46501,0.13027 c -0.44889,-0.44888 -0.16917,-1.29537 0.47499,-1.43744 3.19635,-0.70497 4.52181,-0.79432 4.98039,-0.33574 0.69651,0.69652 0.11589,1.09555 -2.2644,1.55617 -2.35638,0.45599 -2.91408,0.49392 -3.19098,0.21701 z m 3.00042,-0.73079 c 1.04475,-0.18195 1.89957,-0.46697 1.89957,-0.63339 0,-0.17736 -0.40353,-0.23002 -0.975,-0.12725 -0.53625,0.0964 -1.54875,0.26372 -2.25,0.37173 -0.70125,0.10801 -1.275,0.31413 -1.275,0.45804 0,0.33822 0.30831,0.33002 2.60043,-0.0691 z m 4.41357,-1.00484 c -0.27486,-0.71627 0.0552,-0.93812 2.45547,-1.6507 2.06004,-0.61156 2.33889,-0.63388 2.75244,-0.22035 0.78213,0.78215 0.23295,1.26063 -2.06343,1.79778 -2.66952,0.62444 -2.93064,0.63052 -3.14448,0.0733 z m 3.87063,-0.83401 c 0.67125,-0.19588 1.0245,-0.44122 0.86499,-0.60074 -0.2976,-0.2976 -3.60669,0.54184 -4.09962,1.03998 -0.33702,0.34058 1.34508,0.11216 3.23463,-0.43924 z m 3.33723,-0.96383 c -0.86592,-0.63318 -0.29217,-1.21477 1.95219,-1.97886 1.63776,-0.55757 2.25846,-0.65101 2.65653,-0.39992 0.89427,0.5641 0.57399,1.12283 -0.98058,1.71061 -2.6172,0.98955 -3.07365,1.07361 -3.62814,0.66817 z m 2.80314,-0.92807 c 0.86625,-0.30634 1.575,-0.66532 1.575,-0.79772 0,-0.45306 -0.85059,-0.27335 -3.84402,0.81214 -0.21669,0.0786 -0.30429,0.28804 -0.19464,0.46545 0.10965,0.17742 0.35445,0.26735 0.54402,0.19985 0.18954,-0.0675 1.05339,-0.37338 1.91964,-0.67972 z m 3.489,-1.77409 c -0.26115,-0.68053 0.0359,-0.93307 2.15868,-1.83526 1.45794,-0.61963 2.10807,-0.76203 2.46141,-0.53914 0.97146,0.61278 0.6969,1.03361 -1.25034,1.91653 -2.17824,0.98766 -3.11748,1.11528 -3.36975,0.45787 z m 2.90538,-0.80131 c 1.45509,-0.62596 1.92642,-1.16306 1.02066,-1.16306 -0.49656,0 -3.44004,1.41616 -3.44004,1.65506 0,0.3185 1.01523,0.11204 2.41938,-0.492 z"
         style="fill:#e19e9d;stroke-width:0.30000001" />
      <path
         inkscape:connector-curvature="0"
         id="path102"
         d="m 350.45676,338.14639 c -0.4125,-0.29958 -4.53,-2.64653 -9.15,-5.21543 -4.62,-2.56891 -12.15267,-6.76746 -16.73928,-9.33013 -4.58662,-2.56265 -8.61219,-4.74599 -8.94572,-4.85185 -0.56374,-0.17892 -0.5702,-0.21894 -0.0918,-0.56878 0.36178,-0.26454 0.466,-0.63079 0.35088,-1.23303 -0.22357,-1.1695 0.0953,-1.84878 1.63807,-3.4898 0.72531,-0.7715 2.02586,-2.67914 2.8901,-4.2392 1.75907,-3.17532 2.45299,-3.95513 3.31814,-3.72889 0.68934,0.18026 22.82958,12.51503 22.82958,12.71881 0,0.0756 -0.10125,0.0802 -0.225,0.0104 -0.93801,-0.52962 -15.71361,-8.67182 -18.81477,-10.36801 -3.44985,-1.88692 -3.95664,-2.08314 -4.48099,-1.73498 -0.32517,0.2159 -1.29454,1.66109 -2.15416,3.21152 -0.85962,1.55044 -2.18442,3.47354 -2.94401,4.27357 -0.75959,0.80002 -1.37964,1.5457 -1.37788,1.65706 0.004,0.23655 0.12472,0.30612 19.49681,11.20933 8.1675,4.59692 15.08625,8.63964 15.375,8.98382 0.3252,0.38764 0.525,1.12688 0.525,1.94255 0,1.46616 -0.30636,1.61996 -1.5,0.75306 z m 26.28654,-13.74976 c -0.24042,-0.24043 -0.24018,-1.39772 0,-2.02478 0.10287,-0.26802 0.71037,-0.75431 1.35,-1.08063 1.4493,-0.73937 1.52448,-0.55366 0.11301,0.27912 -0.83313,0.49155 -1.05,0.8075 -1.05,1.52963 0,1.079 -0.005,1.07798 1.51194,0.30403 0.65343,-0.33336 1.18806,-0.53813 1.18806,-0.45506 0,0.27737 -2.92413,1.63702 -3.11346,1.44769 z m 3.41346,-1.72113 c 0,-0.0825 0.405,-0.35943 0.9,-0.61541 0.495,-0.25597 0.9,-0.39791 0.9,-0.31541 0,0.0825 -0.405,0.35944 -0.9,0.61541 -0.495,0.25598 -0.9,0.39791 -0.9,0.31541 z m -5.27616,-2.1353 c -1.25241,-0.87692 -5.09952,-1.16339 -11.27067,-0.83927 -3.19173,0.16763 -6.61317,0.21312 -7.60317,0.10108 -1.50387,-0.17019 -1.20777,-0.21213 1.8,-0.25492 1.98,-0.0282 5.20155,-0.17521 7.15902,-0.32676 4.27815,-0.33124 8.16927,0.0351 10.05585,0.94658 l 1.31487,0.6353 2.13513,-1.08277 c 1.17432,-0.59553 3.55263,-1.84981 5.28513,-2.7873 1.7325,-0.93749 3.015,-1.56873 2.85,-1.40275 -0.67182,0.67582 -9.86574,5.47955 -10.45944,5.46497 -0.35232,-0.009 -0.92232,-0.21303 -1.26672,-0.45416 z m 8.57616,0.3353 c 0,-0.0825 0.405,-0.35943 0.9,-0.61541 0.495,-0.25597 0.9,-0.39791 0.9,-0.31541 0,0.0825 -0.405,0.35944 -0.9,0.61541 -0.495,0.25598 -0.9,0.39791 -0.9,0.31541 z m -3.75,-0.38046 c 0.165,-0.16668 4.0125,-2.36615 8.55,-4.88769 9.48546,-5.27119 8.94561,-4.98186 8.55,-4.58221 -0.165,0.16669 -4.0125,2.36615 -8.55,4.8877 -9.48546,5.27118 -8.94561,4.98185 -8.55,4.5822 z m 5.85,-0.81954 c 0,-0.0825 0.405,-0.35943 0.9,-0.61541 0.495,-0.25597 0.9,-0.39791 0.9,-0.31541 0,0.0825 -0.405,0.35944 -0.9,0.61541 -0.495,0.25598 -0.9,0.39791 -0.9,0.31541 z m 2.7,-1.5 c 0,-0.0825 0.405,-0.35943 0.9,-0.61541 0.495,-0.25597 0.9,-0.39791 0.9,-0.31541 0,0.0825 -0.405,0.35944 -0.9,0.61541 -0.495,0.25598 -0.9,0.39791 -0.9,0.31541 z m 2.1,-1.20321 c 0,-0.0825 0.54,-0.42549 1.2,-0.7622 0.66,-0.33671 1.2,-0.54469 1.2,-0.46219 0,0.0825 -0.54,0.42548 -1.2,0.76219 -0.66,0.33671 -1.2,0.5447 -1.2,0.4622 z m -80.26766,-1.22875 c -0.55921,-0.44802 -0.55553,-0.45355 0.0927,-0.13944 0.37125,0.1799 0.675,0.38985 0.675,0.46655 0,0.22956 -0.15558,0.16327 -0.76766,-0.32711 z m 83.56766,-0.56234 c 0,-0.0825 0.27,-0.2945 0.6,-0.47111 0.33,-0.17661 0.6,-0.25361 0.6,-0.17111 0,0.0825 -0.27,0.2945 -0.6,0.47111 -0.33,0.17661 -0.6,0.25361 -0.6,0.17111 z m -85.66766,-0.63766 c -0.55921,-0.44802 -0.55553,-0.45355 0.0927,-0.13944 0.37125,0.1799 0.675,0.38985 0.675,0.46655 0,0.22956 -0.15558,0.16327 -0.76766,-0.32711 z m 79.81766,0.25222 c 0.165,-0.16787 1.515,-0.95126 3,-1.74088 1.485,-0.78961 2.565,-1.29832 2.4,-1.13046 -0.165,0.16787 -1.515,0.95126 -3,1.74088 -1.485,0.78961 -2.565,1.29832 -2.4,1.13046 z m 7.95,-0.82026 c 0,-0.0825 0.405,-0.35943 0.9,-0.61541 0.495,-0.25597 0.9,-0.39791 0.9,-0.31541 0,0.0825 -0.405,0.35944 -0.9,0.61541 -0.495,0.25598 -0.9,0.39791 -0.9,0.31541 z m 2.7,-1.5 c 0,-0.0825 0.405,-0.35943 0.9,-0.61541 0.495,-0.25597 0.9,-0.39791 0.9,-0.31541 0,0.0825 -0.405,0.35944 -0.9,0.61541 -0.495,0.25598 -0.9,0.39791 -0.9,0.31541 z m -94.92944,-0.43214 c -0.0907,-0.14671 -1.54989,-1.04375 -3.24271,-1.99343 -1.69282,-0.94968 -3.3141,-1.93057 -3.60285,-2.17976 -0.5585,-0.48198 -0.6971,-2.02365 -0.24601,-2.73636 0.22993,-0.36328 0.38286,-0.3522 1.03485,0.075 0.42078,0.27571 0.96134,0.50128 1.20125,0.50128 0.23991,0 1.5228,0.56487 2.85087,1.25526 2.35309,1.22325 2.43007,1.24132 3.01849,0.70882 1.24657,-1.12814 1.08258,-4.2509 -0.32307,-6.15215 -0.7275,-0.984 -0.59744,-1.33525 0.73264,-1.97858 0.83141,-0.40214 0.88202,-0.40327 0.38844,-0.009 -0.31215,0.24953 -0.7136,0.50238 -0.8921,0.56188 -0.19527,0.0651 0.0607,0.89069 0.64254,2.07264 0.53191,1.08044 0.9671,2.39998 0.9671,2.93229 0,1.27812 -0.80936,2.93531 -1.72736,3.53681 -0.66432,0.43527 -0.72453,0.64188 -0.60548,2.07753 0.13348,1.60953 0.10337,1.81281 -0.1966,1.32745 z m 90.72944,-0.76216 c 0,-0.0825 0.27,-0.2945 0.6,-0.47111 0.33,-0.17661 0.6,-0.25361 0.6,-0.17111 0,0.0825 -0.27,0.2945 -0.6,0.47111 -0.33,0.17661 -0.6,0.25361 -0.6,0.17111 z m 3,-0.57252 c 0,-0.2622 5.02173,-2.89859 5.52117,-2.89859 0.9843,0 0.43089,2.44266 -0.63783,2.81544 -0.50631,0.17661 -0.50673,0.16531 -0.008,-0.22277 0.48276,-0.37593 0.77217,-2.29267 0.34617,-2.29267 -0.0983,0 -1.31334,0.61843 -2.7,1.3743 -1.38663,0.75586 -2.52117,1.30679 -2.52117,1.22429 z m -0.3,-0.93318 c 0,-0.0825 0.405,-0.35943 0.9,-0.61541 0.495,-0.25597 0.9,-0.39791 0.9,-0.31541 0,0.0825 -0.405,0.35944 -0.9,0.61541 -0.495,0.25598 -0.9,0.39791 -0.9,0.31541 z m 2.79561,-1.57742 c 0.10533,-0.17043 0.5994,-0.47882 1.09794,-0.68532 0.49854,-0.2065 0.90645,-0.49578 0.90645,-0.64285 0,-0.14706 -0.76932,-0.60761 -1.70958,-1.02345 -2.12916,-0.94161 -3.57108,-2.02639 -4.31484,-3.24612 -0.63621,-1.04336 -0.74763,-2.60823 -0.25167,-3.53493 0.2553,-0.47705 0.20766,-0.74127 -0.225,-1.24758 -0.46224,-0.54093 -0.38313,-0.52146 0.50109,0.12328 0.5775,0.42109 3.075,1.89883 5.55,3.28386 2.475,1.38502 4.79556,2.81146 5.15682,3.16986 0.36126,0.35839 0.73251,0.57594 0.825,0.48344 0.0925,-0.0925 0.16611,0.56307 0.16359,1.45682 -0.003,1.15983 -0.0878,1.49618 -0.29541,1.175 -0.15996,-0.2475 -0.29289,-0.34528 -0.29541,-0.21729 -0.006,0.31939 -1.60785,-0.53417 -2.08818,-1.11293 -0.21444,-0.25838 -0.6771,-0.47234 -1.02813,-0.47547 -0.35106,-0.003 -2.11155,-0.81313 -3.91224,-1.8 -1.80069,-0.98687 -3.41343,-1.79431 -3.58386,-1.79431 -0.82056,0 2.01237,2.29979 3.95187,3.20817 1.24236,0.58187 2.14368,1.1825 2.07795,1.38471 -0.0638,0.19642 -0.70149,0.68289 -1.41699,1.08105 -0.7155,0.39815 -1.21473,0.58448 -1.1094,0.41406 z m -93.09561,-9.50065 c 0,-0.0704 0.48061,-0.41164 1.06802,-0.75822 0.58742,-0.34658 0.98386,-0.49396 0.88098,-0.3275 -0.20091,0.32508 -1.949,1.29888 -1.949,1.08572 z"
         style="fill:#5fa1af;stroke-width:0.30000001" />
      <path
         sodipodi:nodetypes="ccccccsscsccccccccccccssccsccccssccsccscccccccccsscscscsccccscccscsccccscsscscccscssscccccccscsssccscccccccccccccccscsssccccccccccscccccccccsccssscccscccscccccsccscsscccscccccsscccccsccccscscscccscccccccccccsccccccsscccssccsccccssccssccssccsscccsccccsccccsccccscc"
         inkscape:connector-curvature="0"
         id="path100"
         d="m 352.28745,319.71256 c 0.24534,-0.53846 0.50001,-0.67517 1.05879,-0.56835 0.84831,0.16217 0.86187,0.13633 -0.41067,0.78346 l -0.97116,0.49388 z m -0.53067,-2.13962 c -0.30252,-0.40543 -2.03502,-1.56847 -3.85002,-2.58453 -9.5538,-5.34834 -14.20122,-7.97965 -21.15,-11.97485 -4.2075,-2.4191 -9.27,-5.2555 -11.25,-6.30309 -1.98,-1.0476 -6.03,-3.28047 -9,-4.96192 -8.75624,-4.95731 -9.98513,-5.58613 -10.20897,-5.22394 -0.11214,0.18144 0.0852,0.63764 0.43857,1.01377 l 0.64247,0.68387 -0.68604,0.4821 -0.68603,0.4821 0.75,0.64865 0.75,0.64865 -0.75,-0.44672 c -0.63636,-0.37904 -0.76364,-0.70307 -0.84002,-2.13855 -0.0858,-1.61145 -0.0501,-1.70697 0.75,-2.01086 0.46201,-0.17547 2.02799,-0.99869 3.47994,-1.82937 1.50748,-0.86245 2.85873,-1.44348 3.15,-1.35448 0.28055,0.0857 2.32943,0.85162 4.55308,1.702 9.51557,3.63903 18.27163,5.62253 27.25021,6.17297 1.59873,0.098 4.26888,0.44174 5.93364,0.76384 3.0771,0.59537 3.84783,0.55708 4.14054,-0.20569 0.0901,-0.23474 0.52125,-0.4268 0.95817,-0.4268 0.64845,0 0.76539,0.11098 0.63648,0.60393 -0.22035,0.84269 0.4206,1.10535 3.31311,1.35766 2.16183,0.18858 2.48826,0.15256 2.65941,-0.29348 0.28527,-0.74337 -0.30168,-1.16649 -1.91091,-1.37754 -1.84095,-0.24144 -1.2468,-0.43952 2.62635,-0.87559 10.45134,-1.17667 22.94226,-4.87969 34.35,-10.18328 1.815,-0.84381 2.96451,-1.27288 2.55447,-0.95347 -0.41001,0.3194 -0.68001,0.64148 -0.6,0.71573 0.08,0.0743 1.63053,0.89786 3.44553,1.83025 2.84577,1.46191 3.31404,1.62165 3.40194,1.16052 0.0561,-0.2941 0.37719,-0.7509 0.71358,-1.01511 0.59091,-0.46412 0.51837,-0.53375 -2.14188,-2.05609 -1.7205,-0.98456 -2.97315,-1.51826 -3.33897,-1.42259 -0.32202,0.0842 -0.50985,0.0307 -0.41739,-0.11892 0.32823,-0.53107 1.1289,-0.25149 4.10418,1.43313 l 3.01155,1.70515 -0.81504,0.64988 c -0.75507,0.60206 -0.77886,0.68606 -0.32355,1.14138 0.44616,0.44618 0.59214,0.44944 1.58313,0.0354 0.60039,-0.25086 1.14903,-0.51351 1.2192,-0.58367 0.15447,-0.15448 1.89189,0.7091 4.66047,2.31647 2.45055,1.42273 2.51622,1.29798 -1.90722,3.62333 -1.7325,0.91075 -5.3775,2.90025 -8.1,4.42112 -8.09829,4.52391 -19.74132,10.87309 -27.9,15.21445 -14.0313,7.46624 -14.85,7.9504 -14.85,8.78181 0,0.50164 0.14478,0.70752 0.45,0.63998 0.2475,-0.0548 8.7525,-4.77149 18.9,-10.4816 10.1475,-5.71011 19.935,-11.14911 21.75,-12.08666 3.98325,-2.05759 10.13331,-5.51947 12.6,-7.09257 l 1.8,-1.14793 -0.10269,1.35417 -0.10272,1.35417 -3.49728,1.91945 c -7.33452,4.02547 -9.34731,5.20253 -9.34731,5.46622 0,0.14981 -0.489,0.0681 -1.08663,-0.18164 -1.61514,-0.67485 -2.10981,-0.57936 -4.4382,0.85674 -1.16883,0.72092 -3.34017,1.98078 -4.82517,2.79968 -2.66016,1.46694 -17.13072,9.68463 -24.45,13.88491 -2.0625,1.1836 -4.44789,2.61384 -5.30085,3.17832 -0.85296,0.56448 -1.68543,1.02632 -1.84998,1.02632 -0.16452,0 -0.54663,-0.33172 -0.84915,-0.73715 z m 35.73684,-23.33785 c -0.24681,-0.64129 -5.50377,-3.82339 -6.36774,-3.85445 -0.64197,-0.0231 -0.52749,-0.10721 0.52947,-0.38901 1.42911,-0.38102 1.84173,-1.02564 1.06767,-1.66803 -0.71475,-0.59321 -5.11626,0.82282 -5.11626,1.64598 0,0.50559 0.19413,0.58495 1.35,0.55186 l 1.35,-0.0386 -1.00776,0.31645 c -1.16529,0.36591 -1.94199,0.0336 -2.08098,-0.89037 -0.0598,-0.39799 0.17406,-0.70969 0.71892,-0.95794 0.80703,-0.36771 0.80586,-0.36901 -1.56126,-1.72298 -2.59737,-1.48567 -2.72271,-1.49441 -5.66091,-0.39509 l -1.77648,0.66467 3.29046,1.08128 c 3.89094,1.27861 4.02801,1.35615 4.02801,2.27877 0,0.78384 -0.16488,0.86156 -2.83611,1.3369 -3.00768,0.53522 -2.71314,0.91111 0.75111,0.95855 1.72425,0.0236 4.0125,0.0142 5.085,-0.0209 1.48014,-0.0485 2.41986,0.11834 3.9,0.6924 2.11665,0.82092 4.58469,1.05459 4.33686,0.41061 z m -41.83686,-1.11636 c 1.27254,-0.0207 1.52991,-0.0968 1.125,-0.33267 -0.28875,-0.16818 -0.525,-0.63657 -0.525,-1.04088 0,-0.88875 -0.45972,-0.95775 -0.9,-0.13509 -0.39507,0.73818 -1.49601,0.77112 -4.2,0.12564 -1.0725,-0.25602 -3.435,-0.58658 -5.25,-0.73459 -1.815,-0.148 -4.3983,-0.36035 -5.74068,-0.47189 -2.39409,-0.19893 -2.4504,-0.18796 -2.94987,0.57433 -0.30177,0.46053 -0.43062,1.0247 -0.31635,1.38481 0.18246,0.57483 0.47169,0.61212 5.3499,0.68969 2.83635,0.0451 6.642,0.0562 8.457,0.0248 1.815,-0.0315 4.0425,-0.0693 4.95,-0.0841 z m 14.90817,-0.50202 c 0.35358,-0.92147 -0.75456,-1.33573 -3.32388,-1.24258 -1.88736,0.0684 -2.4387,0.1948 -2.70267,0.6195 -0.5214,0.83888 0.25011,1.10672 3.2028,1.11187 2.17065,0.004 2.66775,-0.0823 2.82375,-0.48879 z m 7.36683,-0.15718 c 0.58557,-0.30177 0.69585,-1.00844 0.20472,-1.31198 -0.17616,-0.10887 -1.53621,-0.10171 -3.02232,0.0159 -2.80461,0.22198 -3.42282,0.57437 -2.64714,1.50899 0.30537,0.36796 0.81261,0.41684 2.65857,0.25617 1.25463,-0.1092 2.51742,-0.32029 2.80617,-0.46909 z m 5.41599,-0.66645 c 2.38029,-0.46062 2.96091,-0.85965 2.2644,-1.55617 -0.40008,-0.40009 -0.75042,-0.42079 -2.38716,-0.14102 -3.09702,0.52938 -3.26823,0.59066 -3.26823,1.16992 0,1.07417 0.31317,1.12287 3.39099,0.52727 z m 15.05901,-3.98463 c 1.55457,-0.58778 1.87485,-1.14651 0.98058,-1.71061 -0.39807,-0.25109 -1.01877,-0.15765 -2.65653,0.39992 -2.24436,0.76409 -2.81811,1.34568 -1.95219,1.97886 0.55449,0.40544 1.01094,0.32138 3.62814,-0.66817 z m 16.66491,-1.15606 c 0.48678,-0.25174 0.88464,-0.55549 0.8841,-0.675 -0.003,-0.36001 -4.93497,-3.06827 -5.56449,-3.05472 -0.32148,0.007 -1.0305,0.25037 -1.5756,0.54102 l -0.99108,0.52845 2.94108,1.55157 c 1.6176,0.85337 3.04902,1.55491 3.18099,1.55898 0.13194,0.004 0.63819,-0.19857 1.125,-0.4503 z m -10.63116,-1.3358 c 1.94724,-0.88292 2.2218,-1.30375 1.25034,-1.91653 -0.35334,-0.22289 -1.00347,-0.0805 -2.46141,0.53914 -2.12277,0.90219 -2.41983,1.15473 -2.15868,1.83526 0.25227,0.65741 1.19151,0.52979 3.36975,-0.45787 z m -87.85875,10.32191 c -1.12153,-0.60844 -1.05326,-0.86186 0.075,-0.27841 0.495,0.25598 0.9,0.52944 0.9,0.6077 0,0.19305 -0.0322,0.18217 -0.975,-0.32929 z m -2.4,-1.34884 c -0.61875,-0.32665 -1.125,-0.66092 -1.125,-0.74283 0,-0.0819 0.54,0.12655 1.2,0.46326 0.66,0.33671 1.2,0.67695 1.2,0.7561 0,0.19625 -0.002,0.19546 -1.275,-0.47653 z m -2.4,-1.35116 c -1.12153,-0.60844 -1.05326,-0.86186 0.075,-0.27841 0.495,0.25598 0.9,0.52944 0.9,0.6077 0,0.19305 -0.0322,0.18217 -0.975,-0.32929 z m -2.7,-1.5 c -1.12153,-0.60844 -1.05326,-0.86186 0.075,-0.27841 0.495,0.25598 0.9,0.52944 0.9,0.6077 0,0.19305 -0.0322,0.18217 -0.975,-0.32929 z m 38.70786,-2.15964 c -0.17418,-0.20968 -0.9105,-0.53076 -1.63626,-0.71351 -0.72576,-0.18275 -1.26054,-0.39132 -1.18836,-0.46349 0.19203,-0.19204 2.67504,0.51216 3.13443,0.88895 0.49059,0.40239 4.59795,0.59553 7.48233,0.35184 1.97358,-0.16673 2.175,-0.24389 2.17494,-0.83315 -6e-5,-0.63581 0.0832,-0.64833 3.975,-0.59771 2.18628,0.0284 5.12256,-0.0787 6.52506,-0.23801 3.86838,-0.4395 13.04862,-2.47605 13.34847,-2.96124 0.0779,-0.12597 -1.77993,-1.38113 -4.12845,-2.78925 -2.34852,-1.40812 -5.41752,-3.31217 -6.82002,-4.23122 l -2.55,-1.671 11.88306,-0.005 11.88303,-0.006 2.5974,1.2 c 2.89794,1.33885 3.39696,1.41322 4.77642,0.71185 1.33728,-0.67993 1.33839,-0.68293 0.50562,-1.35042 l -0.74553,-0.59754 0.98481,0.48083 c 0.54579,0.26649 0.89727,0.6225 0.7884,0.79862 -0.45621,0.73815 -11.5695,5.36023 -17.82321,7.41277 -7.20327,2.3642 -14.80479,3.91103 -23.12238,4.70516 -5.50302,0.52541 -11.57022,0.47882 -12.04476,-0.0925 z m -11.04351,-0.81647 c -7.47861,-1.37514 -13.48483,-3.06063 -18.97543,-5.32496 -1.61485,-0.66597 -2.88853,-1.35353 -2.8304,-1.52791 0.0581,-0.17439 0.9325,-0.77077 1.94304,-1.32529 1.76798,-0.97015 1.87144,-0.99058 2.74049,-0.54118 1.13432,0.58658 1.65795,0.58937 2.13762,0.0114 0.3096,-0.37305 0.27948,-0.56464 -0.16618,-1.05709 -0.32612,-0.36036 -0.43291,-0.70357 -0.2664,-0.85618 0.27784,-0.25465 39.93707,-22.5311 40.1126,-22.5311 0.0511,0 0.0192,0.64125 -0.0709,1.425 -0.19785,1.72121 0.80682,1.02457 -13.09737,9.08171 -10.08057,5.84144 -16.00904,9.53047 -16.01393,9.96476 -0.002,0.12182 5.18801,0.25682 11.53199,0.3 l 11.53449,0.0785 -2.75949,1.86024 c -1.51773,1.02313 -3.84261,2.50813 -5.16639,3.3 -1.32381,0.79187 -3.4632,2.17446 -4.75422,3.07243 -2.15829,1.50119 -2.3028,1.66522 -1.79445,2.03692 0.52125,0.38116 0.52449,0.45369 0.0563,1.26943 -0.27309,0.47585 -0.41874,0.94299 -0.32364,1.03808 0.37878,0.37878 0.894,0.13473 1.2183,-0.5771 0.22401,-0.49162 0.57648,-0.74344 1.02318,-0.73098 l 0.68142,0.019 -0.64863,0.26156 c -0.35673,0.14386 -0.73707,0.5403 -0.84519,0.88098 -0.24138,0.76049 -0.46269,0.7551 -5.26683,-0.12826 z m 3.43611,-0.3344 c 0.261,-0.10015 0.47454,-0.42545 0.47454,-0.72289 0,-0.40607 -0.56439,-0.73055 -2.26554,-1.30252 -2.43867,-0.81993 -3.21867,-0.77005 -3.07533,0.19666 0.0678,0.4571 0.58632,0.78444 2.04087,1.28839 2.2752,0.78828 2.21127,0.77605 2.82546,0.54036 z m -6.42546,-2.51395 c 0.73419,-0.46804 0.0316,-1.18492 -1.95365,-1.99334 -2.0665,-0.84152 -2.99635,-0.83223 -2.99635,0.0299 0,0.44223 0.48976,0.79772 1.95,1.41543 2.17787,0.92128 2.36171,0.95486 3,0.54796 z m -6.36,-2.76395 c 0.65791,-0.65791 0.37691,-1.00288 -1.6184,-1.98681 -3.36377,-1.65876 -4.44595,-0.39755 -1.16984,1.36338 2.00823,1.07943 2.27303,1.13864 2.78824,0.62343 z m 16.50375,4.95506 c 0.21657,-0.0867 0.47532,-0.076 0.57501,0.0237 0.0997,0.0997 -0.0775,0.17059 -0.39375,0.15757 -0.3495,-0.0144 -0.42057,-0.0855 -0.18126,-0.18125 z m 53.98125,-12.26665 c -1.12152,-0.60844 -1.05327,-0.86186 0.075,-0.27841 0.495,0.25597 0.9,0.52944 0.9,0.6077 0,0.19305 -0.0322,0.18217 -0.975,-0.32929 z m -2.1,-1.2 c -1.12152,-0.60844 -1.05327,-0.86186 0.075,-0.27841 0.495,0.25597 0.9,0.52944 0.9,0.6077 0,0.19305 -0.0322,0.18217 -0.975,-0.32929 z m -2.1,-1.2 c -1.12152,-0.60844 -1.05327,-0.86186 0.075,-0.27841 0.495,0.25597 0.9,0.52944 0.9,0.60771 0,0.19304 -0.0322,0.18216 -0.975,-0.3293 z m -2.7,-1.5 c -1.12152,-0.60844 -1.05327,-0.86186 0.075,-0.27841 0.495,0.25597 0.9,0.52944 0.9,0.60771 0,0.19304 -0.0322,0.18216 -0.975,-0.3293 z m -2.49267,-1.49496 c -0.5592,-0.44802 -0.55551,-0.45356 0.0927,-0.13944 0.37125,0.1799 0.675,0.38985 0.675,0.46655 0,0.22956 -0.15558,0.16327 -0.76767,-0.32711 z m -4.8,-2.7 c -0.5592,-0.44802 -0.55551,-0.45356 0.0927,-0.13944 0.37125,0.1799 0.675,0.38985 0.675,0.46655 0,0.22956 -0.15558,0.16327 -0.76767,-0.32711 z m -2.7,-1.5 c -0.5592,-0.44802 -0.55551,-0.45356 0.0927,-0.13944 0.37125,0.1799 0.675,0.38985 0.675,0.46655 0,0.22956 -0.15558,0.16327 -0.76767,-0.32711 z m -2.1,-1.2 c -0.5592,-0.44802 -0.55551,-0.45356 0.0927,-0.13944 0.37125,0.1799 0.675,0.38985 0.675,0.46655 0,0.22956 -0.15558,0.16327 -0.76767,-0.32711 z"
         style="fill:#d4655c;stroke-width:0.30000001" />
      <path
         inkscape:connector-curvature="0"
         id="path98"
         d="m 377.15676,323.14682 c 0,-0.47479 0.16875,-0.99848 0.375,-1.16376 0.20625,-0.16527 4.965,-2.86118 10.575,-5.99091 13.9353,-7.77429 14.13156,-7.88206 14.35383,-7.88206 0.10788,0 0.19617,0.44374 0.19617,0.98607 0,0.97471 -0.0787,1.0298 -6.825,4.77941 -3.75375,2.08634 -9.39,5.22007 -12.525,6.96386 -3.135,1.74379 -5.80125,3.17056 -5.925,3.1706 -0.12375,3e-5 -0.225,-0.38841 -0.225,-0.86321 z m -2.40252,-3.06596 c -1.62714,-0.85171 -5.55234,-1.17392 -10.19748,-0.83708 -2.2275,0.16152 -5.44263,0.25377 -7.14477,0.20499 l -3.09474,-0.0887 13.59474,-7.58981 c 7.47714,-4.17439 15.28227,-8.54168 17.34477,-9.70508 5.46087,-3.08033 8.67171,-4.75511 9.11637,-4.75511 0.21486,0 0.62481,0.25878 0.91104,0.57505 0.408,0.45082 0.45045,0.70579 0.1965,1.18028 -0.49596,0.92669 -0.38454,2.49156 0.25167,3.53493 0.74376,1.21972 2.18568,2.3045 4.31484,3.24612 0.94026,0.41583 1.70847,0.85901 1.70712,0.98484 0,0.12583 -0.57513,0.54312 -1.275,0.92731 -7.36062,4.04043 -21.64452,11.80951 -22.6356,12.3116 -1.47087,0.74516 -1.6848,0.7459 -3.08946,0.0106 z m -65.09748,-4.74736 c -2.8875,-1.63087 -5.41875,-3.11863 -5.625,-3.30614 -0.20625,-0.18751 -0.375,-0.92758 -0.375,-1.64459 0,-1.03743 0.14401,-1.39803 0.70516,-1.76571 0.90056,-0.59007 1.69593,-2.26086 1.69104,-3.55231 -0.002,-0.55256 -0.40709,-1.79993 -0.9,-2.77193 -0.49291,-0.97201 -0.8962,-1.8521 -0.8962,-1.95576 0,-0.10366 0.84375,-0.64479 1.875,-1.2025 1.03125,-0.55772 2.10978,-1.21598 2.39673,-1.46279 0.46997,-0.40423 0.70809,-0.34961 2.4,0.55057 5.48168,2.91653 12.9108,7.18775 12.50194,7.18775 -0.69072,0 -1.50032,1.0314 -3.15013,4.01318 -0.81045,1.46475 -2.11479,3.35345 -2.89854,4.19711 -0.78375,0.84367 -1.4423,1.73774 -1.46343,1.98683 -0.0211,0.24908 -0.0549,0.92226 -0.075,1.49594 -0.0236,0.67275 -0.19633,1.07013 -0.48657,1.11931 -0.2475,0.0419 -2.8125,-1.25809 -5.7,-2.88896 z"
         style="fill:#5ea869;stroke-width:0.30000001" />
      <path
         sodipodi:nodetypes="cccscscssccccscscccccssccccsccccscccscccsccccsccccscccscccscccscscsscsccsccccscccccssscsccccscccccscccsccccssscsccsccccscccscccccscsscccccccccscccscccscccccscccscscsssscccsscsscscccssccsccccccccccccccscccccsscccccs"
         inkscape:connector-curvature="0"
         id="path96"
         d="m 349.70676,319.83565 c -4.34196,-2.49289 -37.75043,-21.07416 -39.21698,-21.81188 -0.94433,-0.47502 -1.72058,-1.03243 -1.725,-1.23868 -0.004,-0.20625 -0.11722,-0.375 -0.25068,-0.375 -0.13347,0 -0.50471,-0.20994 -0.825,-0.46655 -0.54839,-0.43935 -0.53861,-0.44537 0.16766,-0.10323 0.4125,0.19982 1.155,0.66297 1.65,1.02923 0.94065,0.69598 13.24615,7.57841 14.55,8.13777 0.4125,0.17696 6.42,3.49206 13.35,7.36688 6.93,3.87482 12.91692,7.21235 13.30428,7.41674 0.70422,0.37158 0.70428,0.37145 0.6,-1.31079 l -0.10428,-1.68241 0.55002,0.75618 c 0.30252,0.4159 0.68463,0.75618 0.84915,0.75618 0.16455,0 0.99702,-0.46184 1.84998,-1.02632 0.85296,-0.56448 3.23835,-1.99472 5.30085,-3.17832 7.31928,-4.20028 21.78984,-12.41797 24.45,-13.88491 1.485,-0.8189 3.65634,-2.07876 4.82517,-2.79968 2.33571,-1.44062 2.82084,-1.53251 4.46469,-0.84568 l 1.11312,0.4651 -2.50149,1.28406 c -1.37583,0.70624 -4.25649,2.27471 -6.40149,3.4855 -24.18477,13.65154 -31.22307,17.44569 -32.15964,17.33635 -0.82695,-0.0965 -1.01931,0.01 -1.31583,0.72542 -0.43089,1.04024 -0.65565,1.03704 -2.52453,-0.036 z m 0.28233,-3.49211 c -0.5592,-0.44802 -0.55551,-0.45355 0.0927,-0.13944 0.37125,0.1799 0.675,0.38985 0.675,0.46655 0,0.22956 -0.15558,0.16327 -0.76767,-0.32711 z m -2.30733,-1.205 c -1.12152,-0.60844 -1.05327,-0.86186 0.075,-0.27841 0.495,0.25598 0.9,0.52944 0.9,0.60771 0,0.19305 -0.0322,0.18216 -0.975,-0.3293 z m -2.7,-1.50004 c -1.12152,-0.60844 -1.05327,-0.86186 0.075,-0.27841 0.495,0.25598 0.9,0.52944 0.9,0.60771 0,0.19305 -0.0322,0.18216 -0.975,-0.3293 z m -2.49267,-1.49496 c -0.5592,-0.44802 -0.55551,-0.45355 0.0927,-0.13944 0.37125,0.17991 0.675,0.38985 0.675,0.46655 0,0.22956 -0.15558,0.16327 -0.76767,-0.32711 z m -2.7,-1.5 c -0.5592,-0.44802 -0.55551,-0.45355 0.0927,-0.13944 0.37125,0.17991 0.675,0.38985 0.675,0.46655 0,0.22956 -0.15558,0.16327 -0.76767,-0.32711 z m -1.70733,-0.90504 c -1.12152,-0.60844 -1.05327,-0.86186 0.075,-0.27841 0.495,0.25598 0.9,0.52944 0.9,0.60771 0,0.19305 -0.0322,0.18216 -0.975,-0.3293 z m -2.7,-1.5 c -1.12152,-0.60844 -1.05327,-0.86186 0.075,-0.27841 0.495,0.25598 0.9,0.52944 0.9,0.60771 0,0.19305 -0.0322,0.18216 -0.975,-0.3293 z m -2.7,-1.5 c -1.12152,-0.60844 -1.05327,-0.86186 0.075,-0.27841 0.495,0.25598 0.9,0.52944 0.9,0.60771 0,0.19305 -0.0322,0.18216 -0.975,-0.3293 z m -2.1,-1.2 c -1.12152,-0.60844 -1.05327,-0.86186 0.075,-0.27841 0.495,0.25598 0.9,0.52944 0.9,0.60771 0,0.19305 -0.0322,0.18216 -0.975,-0.3293 z m -4.64643,-2.65762 c -1.8543,-1.05931 -5.73554,-3.23349 -8.625,-4.83152 -2.88947,-1.59803 -5.25357,-2.9686 -5.25357,-3.04571 0,-0.21007 5.74744,2.88748 11.925,6.42691 4.69758,2.69148 5.80893,3.38668 5.4,3.37793 -0.0412,-9e-4 -1.59213,-0.86831 -3.44643,-1.92761 z m -20.34623,-8.13734 c -0.55921,-0.44802 -0.55553,-0.45356 0.0927,-0.13944 0.37125,0.1799 0.675,0.38985 0.675,0.46655 0,0.22956 -0.15558,0.16327 -0.76766,-0.32711 z m 4.8,-0.6 c -0.55921,-0.44802 -0.55553,-0.45356 0.0927,-0.13944 0.37125,0.1799 0.675,0.38985 0.675,0.46654 0,0.22957 -0.15558,0.16328 -0.76766,-0.3271 z m 72.76766,-0.31906 c -1.48014,-0.57406 -2.41986,-0.7409 -3.9,-0.6924 -1.0725,0.0351 -3.36075,0.0446 -5.085,0.0209 -3.46425,-0.0475 -3.75879,-0.42334 -0.75111,-0.95855 2.67123,-0.47535 2.83611,-0.55307 2.83611,-1.3369 0,-0.92262 -0.13707,-1.00016 -4.02801,-2.27877 l -3.29046,-1.08128 1.77648,-0.66467 c 2.9382,-1.09932 3.06354,-1.09058 5.66091,0.39509 2.35158,1.34509 2.3631,1.35763 1.575,1.71672 -0.89094,0.40594 -1.03254,1.19392 -0.3207,1.7847 0.3789,0.31445 0.73857,0.32177 1.80432,0.0367 0.73209,-0.19581 1.59648,-0.35601 1.9209,-0.35601 0.68229,0 5.92317,3.26572 6.13842,3.825 0.24783,0.64398 -2.22021,0.4103 -4.33686,-0.41062 z m -79.875,-0.28598 c -1.12153,-0.60844 -1.05326,-0.86186 0.075,-0.27841 0.495,0.25598 0.9,0.52944 0.9,0.6077 0,0.19305 -0.0322,0.18217 -0.975,-0.32929 z m 4.8,-0.6 c -1.12153,-0.60844 -1.05326,-0.86186 0.075,-0.27841 0.495,0.25598 0.9,0.52944 0.9,0.6077 0,0.19305 -0.0322,0.18217 -0.975,-0.32929 z m 24.168,0.23958 c -4.87821,-0.0776 -5.16744,-0.11486 -5.3499,-0.68968 -0.11427,-0.36012 0.0147,-0.92429 0.31635,-1.38482 0.49947,-0.76229 0.55578,-0.77326 2.94987,-0.57433 1.34238,0.11154 3.92568,0.32389 5.74068,0.47189 1.815,0.14801 4.1775,0.47857 5.25,0.73459 2.70399,0.64548 3.80493,0.61254 4.2,-0.12564 0.44028,-0.82266 0.9,-0.75366 0.9,0.13509 0,0.40431 0.23625,0.8727 0.525,1.04088 0.40491,0.23583 0.14754,0.31194 -1.125,0.33267 -0.9075,0.0148 -3.135,0.0526 -4.95,0.0841 -1.815,0.0315 -5.62065,0.0203 -8.457,-0.0248 z m -31.668,-1.13959 c -1.12153,-0.60844 -1.05326,-0.86186 0.075,-0.27841 0.495,0.25598 0.9,0.52944 0.9,0.60771 0,0.19305 -0.0322,0.18216 -0.975,-0.3293 z m 5.60734,-0.29496 c -0.55921,-0.44801 -0.55553,-0.45355 0.0927,-0.13944 0.37125,0.17991 0.675,0.38985 0.675,0.46655 0,0.22956 -0.15558,0.16327 -0.76766,-0.32711 z m -8.75734,-1.50328 c -1.43434,-0.85967 -1.5526,-1.16048 -0.6468,-1.64525 l 0.6282,-0.3362 -0.65963,-0.70215 c -0.99209,-1.05603 -0.49136,-1.45802 0.91956,-0.73823 0.65102,0.33213 1.18367,0.67137 1.18367,0.75387 0,0.0825 -0.54,-0.12549 -1.2,-0.4622 -1.37565,-0.7018 -1.56483,-0.52332 -0.40899,0.38585 l 0.79101,0.62221 -0.71149,0.57613 -0.7115,0.57614 0.63492,0.49483 c 0.3492,0.27216 0.88717,0.65565 1.19548,0.8522 1.08076,0.68897 0.24754,0.37915 -1.01443,-0.3772 z m 5.85,-0.002 c -1.12153,-0.60844 -1.05326,-0.86186 0.075,-0.27841 0.495,0.25597 0.9,0.52944 0.9,0.6077 0,0.19305 -0.0322,0.18217 -0.975,-0.32929 z m -1.89266,-1.19491 c -0.55921,-0.44802 -0.55553,-0.45355 0.0927,-0.13944 0.37125,0.1799 0.675,0.38985 0.675,0.46654 0,0.22957 -0.15558,0.16328 -0.76766,-0.3271 z m 36.73172,-0.0276 c -0.1575,-0.1893 -1.51713,-0.64829 -3.02136,-1.01997 -2.61729,-0.64671 -2.7519,-0.65266 -3.12801,-0.13828 -0.21618,0.29564 -0.43977,0.67766 -0.49686,0.84895 -0.0571,0.17129 -0.3288,0.22509 -0.60381,0.11956 -0.46482,-0.17836 -0.46365,-0.25524 0.0165,-1.09205 0.49278,-0.85862 0.4911,-0.91885 -0.0362,-1.30444 -0.50835,-0.3717 -0.36384,-0.53573 1.79445,-2.03692 1.29102,-0.89797 3.43041,-2.28056 4.75422,-3.07243 1.32378,-0.79187 3.64866,-2.27687 5.16639,-3.3 l 2.75961,-1.86024 -11.53449,-0.0785 c -6.34398,-0.0432 -11.53337,-0.17819 -11.53199,-0.3 0.005,-0.4343 5.93336,-4.12333 16.01393,-9.96477 13.73928,-7.96157 12.91323,-7.40003 13.02861,-8.85671 0.17661,-2.22959 -2.05308,-3.29355 24.50496,11.6932 13.39851,7.5608 14.55,8.23463 14.55,8.51447 0,0.32412 -1.99908,1.24233 -2.70474,1.24233 -0.32142,0 -1.7532,-0.54 -3.18177,-1.2 l -2.5974,-1.2 -11.88303,0.005 -11.88306,0.006 2.55,1.671 c 1.4025,0.91905 4.4715,2.8231 6.82002,4.23122 2.34852,1.40812 4.20633,2.66328 4.12845,2.78925 -0.29985,0.48519 -9.48009,2.52174 -13.34847,2.96124 -1.4025,0.15934 -4.33878,0.26645 -6.52506,0.23801 -3.89178,-0.0506 -3.97506,-0.0381 -3.975,0.59771 6e-5,0.58951 -0.20052,0.6661 -2.17494,0.83046 -3.10056,0.2581 -7.12185,0.0834 -7.46094,-0.32405 z m 29.43594,-24.25479 c 0,-0.16967 -15.14364,-8.85103 -15.43959,-8.85103 -0.0882,0 -0.16041,0.60948 -0.16041,1.35441 0,1.2104 -0.10368,1.41539 -0.975,1.92797 -3.55602,2.09188 -8.02056,4.92206 -7.9212,5.02143 0.0652,0.0651 4.15218,0.10742 9.08232,0.094 4.93014,-0.0134 9.16638,-0.0195 9.41388,-0.0136 0.2475,0.006 1.4625,0.18898 2.7,0.40662 1.91439,0.33669 3.3,0.36196 3.3,0.0602 z m 39.9858,23.39897 c 0.003,-0.825 0.0605,-1.12689 0.12948,-0.67087 0.0689,0.45601 0.0671,1.13101 -0.004,1.5 -0.0712,0.36898 -0.12762,-0.004 -0.12537,-0.82913 z m -108.0858,-0.15 c -0.27039,-0.17474 -0.30739,-0.29265 -0.0927,-0.29541 0.19652,-0.002 0.44073,0.13041 0.54271,0.29541 0.23019,0.37246 0.12634,0.37246 -0.45,0 z m 101.30892,-2.46638 -2.94108,-1.55157 0.99108,-0.52845 c 0.5451,-0.29065 1.25412,-0.53411 1.5756,-0.54102 0.62952,-0.0135 5.56287,2.69471 5.56449,3.05472 0,0.23377 -1.61253,1.13753 -2.0091,1.1253 -0.13197,-0.004 -1.56339,-0.70561 -3.18099,-1.55898 z m -7.55892,-4.00941 c -1.815,-0.93239 -3.36549,-1.756 -3.44553,-1.83025 -0.21471,-0.19919 1.24053,-1.26746 2.00841,-1.47434 0.46839,-0.12619 1.46991,0.28324 3.41358,1.39551 2.65755,1.52081 2.72997,1.59037 2.13906,2.05449 -0.33639,0.26421 -0.65751,0.72101 -0.71358,1.01511 -0.0879,0.46113 -0.55617,0.30139 -3.40194,-1.16052 z"
         style="fill:#b45d4f;stroke-width:0.30000001" />
      <path
         sodipodi:nodetypes="cccssccsssccccccsccssscc"
         inkscape:connector-curvature="0"
         id="path94"
         d="m 338.30676,312.8737 c -7.095,-3.97395 -13.3725,-7.44401 -13.95,-7.71124 -1.74129,-0.80576 -13.86164,-7.57821 -15.15,-8.46533 -0.66,-0.45445 -3.5625,-2.1367 -6.45,-3.73834 -6.29958,-3.49424 -6.34061,-3.52671 -5.40938,-4.28078 l 0.6914,-0.55986 -0.79101,-0.62221 c -0.43506,-0.34221 -0.79101,-0.71441 -0.79101,-0.82711 0,-0.20318 3.60986,1.66086 7.65,3.95024 2.31919,1.3142 15.28113,8.58858 34.35,19.27761 6.8475,3.83835 12.55941,7.08027 12.69315,7.20427 0.13374,0.12399 0.20124,0.84929 0.15,1.61178 l -0.0932,1.38635 z m 25.95,-48.17278 c -1.2375,-0.21764 -2.4525,-0.40062 -2.7,-0.40662 -0.2475,-0.006 -4.48374,1.1e-4 -9.41388,0.0136 -4.93014,0.0135 -9.01716,-0.0288 -9.08232,-0.094 -0.0994,-0.0994 4.36518,-2.92954 7.9212,-5.02143 0.87132,-0.51257 0.975,-0.71757 0.975,-1.92797 0,-0.74493 0.0722,-1.35441 0.16041,-1.35441 0.29595,0 15.43959,8.68136 15.43959,8.85103 0,0.30177 -1.38561,0.27649 -3.3,-0.0602 z"
         style="fill:#b3141c;stroke-width:0.30000001" />
    </g>
    <g
       transform="translate(-80.646853,0.61864124)"
       id="g40">
      <path
         sodipodi:nodetypes="cccssscscccccsscscsccscsscccccssscsscccsccsccssccsccssccsccsssssscssccccssscscccccccsscsssccssscccccsscccscscsccscccscssccsccccsscccccccccc"
         inkscape:connector-curvature="0"
         id="path88"
         d="m 250.1013,204.36889 c -9.38408,-0.96763 -14.59064,-5.27401 -16.49892,-13.64636 -0.83248,-3.65238 -0.76457,-11.96392 0.12681,-15.52011 1.20687,-4.81492 3.39338,-8.16645 6.85563,-10.50849 3.8617,-2.61224 8.86002,-3.72577 15.41468,-3.43411 4.31948,0.19221 7.57765,0.93922 10.20549,2.33984 1.93795,1.03292 4.27241,2.89529 4.1329,3.29712 -0.14669,0.42251 -4.50418,4.77575 -4.7804,4.77575 -0.14113,0 -0.92525,-0.48037 -1.74248,-1.0675 -2.39334,-1.71944 -4.44065,-2.30751 -8.57846,-2.46409 -2.12325,-0.0803 -4.29599,0.005 -5.2695,0.20719 -5.01061,1.0402 -8.25512,4.17289 -9.41439,9.08996 -0.58928,2.49942 -0.58977,9.06739 -9e-4,11.56519 1.0935,4.63799 3.55207,7.36641 7.62647,8.46353 3.63154,0.97788 9.4806,0.89887 12.70343,-0.17158 2.25599,-0.74932 4.15227,-2.75814 4.80728,-5.09257 0.28083,-1.00072 0.51056,-2.72188 0.51056,-3.82481 v -2.00532 h -6.13945 c -5.76285,0 -6.15849,-0.0356 -6.45,-0.58028 -0.3644,-0.6809 -0.41107,-4.79689 -0.0606,-5.34895 0.18765,-0.2956 2.38613,-0.36175 9.97041,-0.3 l 9.72968,0.0792 -0.031,5.11254 c -0.0349,5.75657 -0.48381,8.45356 -1.90859,11.46625 -2.28874,4.83954 -7.25288,7.27925 -15.61042,7.67199 -1.7325,0.0814 -4.25169,0.0344 -5.5982,-0.10442 z m -76.98373,-0.35209 c -0.61643,-0.45932 -16.7841,-41.30014 -16.5748,-41.86927 0.0989,-0.26894 1.07195,-0.375 3.4404,-0.375 3.10256,0 3.32748,0.0409 3.71511,0.675 0.22693,0.37125 3.07945,7.57534 6.33893,16.00909 3.25947,8.43375 6.03957,15.51734 6.17799,15.74131 0.13843,0.22398 0.34375,0.31516 0.45628,0.20263 0.11253,-0.11253 2.93918,-7.29839 6.28144,-15.96857 3.34227,-8.67018 6.24407,-15.96545 6.44845,-16.21171 0.49257,-0.59352 6.75929,-0.65896 6.96647,-0.0727 0.12025,0.34022 -16.01971,41.47541 -16.43838,41.89576 -0.0982,0.0986 -1.55135,0.22214 -3.22924,0.27456 -2.18685,0.0683 -3.20134,-0.0169 -3.58265,-0.30105 z m 131.95735,0.0411 c -3.02396,-0.47063 -6.22115,-1.46028 -8.76798,-2.71403 -3.74771,-1.84491 -3.74051,-1.82687 -1.89288,-4.73705 0.85002,-1.33886 1.70073,-2.43397 1.89047,-2.43356 0.18973,3e-4 1.53623,0.599 2.99221,1.33022 2.90779,1.46035 6.51258,2.42113 10.25276,2.73263 2.73793,0.22803 7.48405,-0.26125 9.10929,-0.93909 3.64794,-1.52145 4.75549,-6.17678 2.08961,-8.78317 -1.27595,-1.24748 -3.58533,-1.95493 -9.8489,-3.01707 -7.80236,-1.32309 -10.60244,-2.3002 -13.04584,-4.55245 -2.06104,-1.8998 -2.69084,-3.68122 -2.6946,-7.62181 -0.004,-4.089 0.52872,-5.81595 2.4543,-7.95766 2.49411,-2.77405 5.56492,-3.82765 11.93614,-4.09532 4.33546,-0.18214 7.87205,0.12668 11.13383,0.9722 2.04308,0.52961 5.66096,2.13229 6.15371,2.72602 0.26131,0.31486 -0.0154,0.94322 -1.23031,2.79376 -0.8621,1.31314 -1.72928,2.52182 -1.92705,2.68596 -0.24722,0.20517 -0.85732,0.0678 -1.95226,-0.43946 -3.75151,-1.7381 -5.53022,-2.0855 -10.67792,-2.0855 -4.30049,0 -4.94746,0.0681 -6.217,0.6546 -3.1576,1.45867 -3.84783,5.70307 -1.27264,7.82576 1.40454,1.15774 3.34848,1.72688 9.50257,2.78213 2.85289,0.48918 6.13207,1.17127 7.28707,1.51574 4.52402,1.34924 7.11269,3.37487 8.16491,6.38899 0.76412,2.18885 0.74433,7.28345 -0.0362,9.33279 -1.36132,3.57403 -3.82506,5.71287 -8.04151,6.98105 -2.19122,0.65906 -3.14751,0.75892 -8.03715,0.83929 -3.0525,0.0502 -6.34856,-0.0331 -7.32458,-0.18497 z M 81.099503,182.77253 v -21 h 3.542661 c 2.382103,0 3.697466,0.12285 4.015211,0.375 0.259902,0.20625 5.161198,6.83276 10.891769,14.72557 5.957526,8.2054 10.531676,14.23811 10.681846,14.08795 0.14444,-0.14444 0.29769,-6.7372 0.34057,-14.65057 l 0.078,-14.38795 h 3.15 3.15 l 0.077,20.925 0.077,20.925 h -3.15815 -3.15814 l -2.6189,-3.5456 c -1.44039,-1.95009 -6.4664,-8.83275 -11.168897,-15.29481 -4.7025,-6.46207 -8.65125,-11.75154 -8.775,-11.7544 -0.12375,-0.003 -0.225,6.66627 -0.225,14.82028 0,8.154 -0.08194,15.039 -0.182097,15.3 -0.150627,0.39252 -0.746846,0.47453 -3.45,0.47453 h -3.267903 z m 40.499997,20.62166 c 0,-0.53426 16.12779,-41.02317 16.537,-41.51624 0.46337,-0.55832 6.64711,-0.57703 7.10816,-0.0215 0.36959,0.44533 16.26539,40.2266 16.48304,41.25092 l 0.14551,0.68484 -3.55574,-0.0848 -3.55574,-0.0848 -1.36989,-3.52377 c -0.75343,-1.93807 -1.50729,-3.66118 -1.67522,-3.82911 -0.19816,-0.19816 -3.823,-0.27757 -10.32682,-0.22623 l -10.02148,0.0791 -1.36418,3.45 c -0.7503,1.8975 -1.47125,3.61875 -1.60211,3.825 -0.3398,0.53554 -6.80253,0.53236 -6.80253,-0.003 z m 27.28732,-14.54666 c -0.0206,-0.85185 -7.00921,-17.925 -7.33732,-17.925 -0.32133,0 -7.28896,17.0454 -7.32718,17.925 -0.0211,0.48634 0.51849,0.525 7.32718,0.525 6.80484,0 7.34906,-0.0389 7.33732,-0.525 z m 42.21758,14.70961 c -0.20024,-0.32994 16.2369,-41.56182 16.68123,-41.84419 0.48951,-0.31107 6.26134,-0.29626 6.75579,0.0173 0.49476,0.31379 16.9126,41.41131 16.68823,41.77435 -0.26454,0.42805 -6.65016,0.33555 -6.93744,-0.10048 -0.13349,-0.20261 -0.85521,-1.92386 -1.60382,-3.825 l -1.36111,-3.45663 -10.01977,-0.0791 c -6.75685,-0.0533 -10.12329,0.0244 -10.33763,0.23874 -0.17481,0.17481 -0.9307,1.89792 -1.67974,3.82911 l -1.3619,3.51127 -3.34073,0.0846 c -1.8374,0.0465 -3.4048,-0.021 -3.48311,-0.15 z m 27.23382,-14.46635 c 0.21188,-0.34284 -6.85051,-18.10552 -7.2519,-18.23932 -0.30552,-0.10184 -7.28682,17.15071 -7.28682,18.00755 0,0.47038 0.60324,0.51351 7.18229,0.51351 4.15434,0 7.25571,-0.11878 7.35643,-0.28174 z m 62.03424,-6.23342 0.077,-20.93484 h 3.3 3.3 v 20.85 20.85 l -3.37704,0.0848 -3.37705,0.0849 z"
         style="fill:#bf3736;stroke-width:0.30000001" />
    </g>
  </g>
  <g
     inkscape:groupmode="layer"
     id="layer2"
     inkscape:label="Layer 2"
     style="display:inline"
     transform="translate(-0.22856219,168.94422)" />
</svg>
